# xmcd CD database file
#
# Track frame offsets:
#	150
#	17633
#	27045
#	44528
#
# Disc length: 717 seconds
#
# Revision: 0
# Processed by: cddbd v1.5.1PL2 Copyright (c) Steve Scherf et al.
# Submitted via: CDex 1.51
#
DISCID=2602cb04
DTITLE=酒井香奈子 - Cheer! 〜まっかなキモチ〜
DYEAR=2006
DGENRE=J-pop
TTITLE0=Cheer! 〜まっかなキモチ〜
TTITLE1=何の木？　-full version-
TTITLE2=Cheer! 〜まっかなキモチ〜（Original Karaoke）
TTITLE3=何の木？　-full version-（Original Karaoke）
EXTD=YEAR: 2006
EXTT0=
EXTT1=
EXTT2=
EXTT3=
PLAYORDER=
